<?xml version="1.0" encoding="UTF-8" standalone="no"?>
<svg
   version="1.1"
   id="svg1"
   width="100"
   height="50"
   xmlns="http://www.w3.org/2000/svg"
   xmlns:svg="http://www.w3.org/2000/svg">
  <defs
     id="defs1" />
  <g
     id="g1"
     transform="translate(-200,-200)">
    <path
       id="path1"
       d="m 225,210 -16,16 16,16 h 2 c 0.56667,0 1.04922,-0.18411 1.44922,-0.55078 C 228.81589,241.04922 229,240.56667 229,240 v -12 l 14,14 h 2 c 0.56667,0 1.04922,-0.18411 1.44922,-0.55078 C 246.81589,241.04922 247,240.56667 247,240 v -27.94922 c 0,-0.56666 -0.18411,-1.05117 -0.55078,-1.45117 C 246.04922,210.19961 245.56667,210 245,210 h -2 l -14,14 v -11.94922 c 0,-0.56666 -0.18411,-1.05117 -0.55078,-1.45117 C 228.04922,210.19961 227.56667,210 227,210 Z"
       style="fill:#ffffff" />
    <path
       style="font-weight:900;font-size:14.2263px;line-height:1.25;font-family:Roboto;-inkscape-font-specification:'Roboto Heavy';fill:#ffffff;stroke-width:3.25043"
       d="m 260.50697,235.45007 h -4.29158 V 221.78812 L 252,223.01973 v -3.25042 l 8.11337,-2.80603 h 0.3936 z m 15.31635,-7.55469 c 0,2.49705 -0.5629,4.42277 -1.68871,5.77711 -1.11734,1.35434 -2.69598,2.03153 -4.73597,2.03153 -2.0569,0 -3.64826,-0.68141 -4.77406,-2.04423 -1.12578,-1.36282 -1.68868,-3.28428 -1.68868,-5.76441 v -3.37741 c 0,-2.49705 0.55866,-4.42277 1.67599,-5.77711 1.1258,-1.35434 2.71292,-2.03153 4.76137,-2.03153 2.04843,0 3.63557,0.68141 4.76135,2.04421 1.12581,1.36282 1.68871,3.28852 1.68871,5.77713 z m -4.27889,-3.92338 c 0,-1.32894 -0.17345,-2.31931 -0.52057,-2.9711 -0.34705,-0.66023 -0.89727,-0.99035 -1.6506,-0.99035 -0.73642,0 -1.27393,0.30471 -1.61252,0.91417 -0.33013,0.60946 -0.50789,1.53212 -0.53327,2.76796 v 4.72326 c 0,1.37975 0.17346,2.39127 0.52058,3.03457 0.34705,0.63486 0.89725,0.95228 1.65059,0.95228 0.72798,0 1.26547,-0.30896 1.61252,-0.92688 0.34705,-0.62638 0.52481,-1.60405 0.53327,-2.93299 z m 13.76353,7.61819 c 0,-0.36399 -0.19047,-0.65601 -0.57136,-0.87609 -0.38091,-0.22008 -1.10466,-0.44862 -2.17119,-0.68564 -1.06654,-0.23702 -1.94687,-0.54598 -2.64097,-0.92688 -0.69412,-0.38938 -1.22315,-0.85918 -1.58713,-1.40938 -0.36399,-0.55019 -0.54597,-1.1808 -0.54597,-1.89182 0,-1.26124 0.52058,-2.29817 1.56173,-3.11077 1.04116,-0.82108 2.40394,-1.23162 4.08842,-1.23162 1.81143,0 3.26734,0.41054 4.36775,1.23162 1.1004,0.82106 1.65061,1.90031 1.65061,3.23772 h -4.29155 c 0,-1.10041 -0.57983,-1.6506 -1.7395,-1.6506 -0.44864,0 -0.82533,0.12705 -1.13004,0.38092 -0.30472,0.24546 -0.45708,0.55442 -0.45708,0.92688 0,0.38089 0.18621,0.68985 0.55866,0.92687 0.37245,0.23701 0.96497,0.4317 1.77758,0.58405 0.82108,0.15245 1.54056,0.33437 2.15849,0.54597 2.06537,0.71104 3.09806,1.98497 3.09806,3.8218 0,1.25276 -0.55866,2.27275 -1.67601,3.05996 -1.10886,0.78722 -2.54786,1.18084 -4.31697,1.18084 -1.17658,0 -2.2262,-0.21164 -3.14886,-0.63487 -0.92263,-0.42324 -1.64213,-0.99883 -2.15848,-1.72679 -0.51635,-0.72795 -0.77451,-1.49399 -0.77451,-2.29815 h 3.99954 c 0.0165,0.63486 0.22856,1.10041 0.63485,1.39667 0.40631,0.28779 0.92688,0.4317 1.56172,0.4317 0.58405,0 1.02,-0.1184 1.30779,-0.35551 0.29627,-0.23702 0.44441,-0.54598 0.44442,-0.92688 z"
       id="text4"
       aria-label="10s" />
  </g>
</svg>
