<?xml version="1.0" encoding="UTF-8" standalone="no"?>
<svg
   version="1.1"
   id="svg1"
   width="50"
   height="50"
   xmlns="http://www.w3.org/2000/svg"
   xmlns:svg="http://www.w3.org/2000/svg">
  <defs
     id="defs1" />
  <g
     id="g1"
     transform="translate(-700)">
    <path
       id="path1"
       d="m 713.05078,8.0996094 c -0.56666,0 -1.05117,0.1996098 -1.45117,0.5996094 -0.36667,0.3999996 -0.54883,0.8845057 -0.54883,1.4511722 v 27.949218 c 0,0.566666 0.18216,1.051173 0.54883,1.451172 0.4,0.366667 0.88451,0.548828 1.45117,0.548828 h 8 c 0.53333,0 0.99844,-0.182161 1.39844,-0.548828 0.4,-0.399999 0.60156,-0.884506 0.60156,-1.451172 v -28 c 0,-0.5333324 -0.20156,-1.0003906 -0.60156,-1.4003902 -0.4,-0.3999996 -0.86511,-0.5996094 -1.39844,-0.5996094 z m 16,0 c -0.56666,0 -1.05117,0.1996098 -1.45117,0.5996094 -0.36667,0.3999996 -0.54883,0.8845057 -0.54883,1.4511722 v 27.949218 c 0,0.566666 0.18216,1.051173 0.54883,1.451172 0.4,0.366667 0.88451,0.548828 1.45117,0.548828 h 8 c 0.53333,0 0.99844,-0.182161 1.39844,-0.548828 0.4,-0.399999 0.60156,-0.884506 0.60156,-1.451172 v -28 c 0,-0.5333324 -0.20156,-1.0003906 -0.60156,-1.4003902 -0.4,-0.3999996 -0.86511,-0.5996094 -1.39844,-0.5996094 z"
       style="fill:#ffffff" />
  </g>
</svg>
